# xmcd CD database file
#
# Track frame offsets:
#	150
#	14786
#	29657
#	48039
#	63074
#	78887
#	123835
#	138676
#	148200
#	175255
#	192555
#	222647
#	239267
#	256606
#	278287
#	292274
#	302245
#
# Disc length: 4234 seconds
#
# Revision: 10
# Processed by: cddbd v1.4PL0 Copyright (c) Steve Scherf et al.
# Submitted via: CDex 1.50Beta7
#
DISCID=02108811
DTITLE=Blue Hearts - Super Best
DYEAR=1995
DGENRE=JPop
TTITLE0=Rindarinda
TTITLE1=Hito ni yasashiku
TTITLE2=Sha ra ra
TTITLE3=Rokudenashi
TTITLE4=Love Letter
TTITLE5=Heisei no Blues
TTITLE6=Kiss Shitehoshii
TTITLE7=Hammer
TTITLE8=Chain Gang
TTITLE9=Train-Train
TTITLE10=Line o koete
TTITLE11=Boku wa koko ni tatteiruyo
TTITLE12=Eiyu ni akogarete
TTITLE13=Aozora
TTITLE14=Owaranai uta
TTITLE15=Blue Hearts Yori Aio o Komete
TTITLE16=1985
EXTD=YEAR: 1995
EXTT0=
EXTT1=
EXTT2=
EXTT3=
EXTT4=
EXTT5=
EXTT6=
EXTT7=
EXTT8=
EXTT9=
EXTT10=
EXTT11=
EXTT12=
EXTT13=
EXTT14=
EXTT15=
EXTT16=
PLAYORDER=
